<svg id="visual" viewBox="0 0 900 600" width="900" height="600" xmlns="http://www.w3.org/2000/svg" xmlns:xlink="http://www.w3.org/1999/xlink" version="1.1"><path d="M0 391L82 354L164 407L245 330L327 382L409 367L491 437L573 357L655 416L736 407L818 337L900 417L900 601L818 601L736 601L655 601L573 601L491 601L409 601L327 601L245 601L164 601L82 601L0 601Z" fill="#00a8cc"></path><path d="M0 454L82 382L164 463L245 375L327 428L409 398L491 415L573 423L655 387L736 374L818 369L900 444L900 601L818 601L736 601L655 601L573 601L491 601L409 601L327 601L245 601L164 601L82 601L0 601Z" fill="#03a0c2"></path><path d="M0 480L82 469L164 424L245 487L327 449L409 429L491 423L573 468L655 455L736 474L818 423L900 403L900 601L818 601L736 601L655 601L573 601L491 601L409 601L327 601L245 601L164 601L82 601L0 601Z" fill="#0599b9"></path><path d="M0 508L82 437L164 486L245 448L327 494L409 481L491 434L573 466L655 495L736 438L818 486L900 515L900 601L818 601L736 601L655 601L573 601L491 601L409 601L327 601L245 601L164 601L82 601L0 601Z" fill="#0791af"></path><path d="M0 481L82 480L164 475L245 499L327 531L409 501L491 475L573 511L655 478L736 536L818 468L900 481L900 601L818 601L736 601L655 601L573 601L491 601L409 601L327 601L245 601L164 601L82 601L0 601Z" fill="#098aa6"></path><path d="M0 530L82 501L164 545L245 534L327 531L409 548L491 510L573 552L655 504L736 554L818 524L900 501L900 601L818 601L736 601L655 601L573 601L491 601L409 601L327 601L245 601L164 601L82 601L0 601Z" fill="#0b829c"></path><path d="M0 580L82 562L164 584L245 552L327 588L409 564L491 582L573 546L655 566L736 575L818 556L900 540L900 601L818 601L736 601L655 601L573 601L491 601L409 601L327 601L245 601L164 601L82 601L0 601Z" fill="#0c7b93"></path></svg>