<svg id="visual" viewBox="0 0 900 600" width="900" height="600" xmlns="http://www.w3.org/2000/svg" xmlns:xlink="http://www.w3.org/1999/xlink" version="1.1"><path d="M0 294L82 250L164 296L245 304L327 367L409 241L491 397L573 301L655 255L736 268L818 382L900 276L900 601L818 601L736 601L655 601L573 601L491 601L409 601L327 601L245 601L164 601L82 601L0 601Z" fill="#00a8cc"></path><path d="M0 362L82 267L164 316L245 345L327 382L409 430L491 349L573 316L655 337L736 358L818 330L900 430L900 601L818 601L736 601L655 601L573 601L491 601L409 601L327 601L245 601L164 601L82 601L0 601Z" fill="#03a0c2"></path><path d="M0 432L82 457L164 330L245 328L327 343L409 320L491 401L573 330L655 413L736 382L818 408L900 450L900 601L818 601L736 601L655 601L573 601L491 601L409 601L327 601L245 601L164 601L82 601L0 601Z" fill="#0599b9"></path><path d="M0 444L82 462L164 444L245 403L327 469L409 380L491 367L573 472L655 384L736 452L818 456L900 483L900 601L818 601L736 601L655 601L573 601L491 601L409 601L327 601L245 601L164 601L82 601L0 601Z" fill="#0791af"></path><path d="M0 520L82 518L164 425L245 468L327 460L409 507L491 432L573 426L655 444L736 460L818 506L900 498L900 601L818 601L736 601L655 601L573 601L491 601L409 601L327 601L245 601L164 601L82 601L0 601Z" fill="#098aa6"></path><path d="M0 482L82 514L164 527L245 484L327 515L409 483L491 510L573 472L655 536L736 544L818 490L900 465L900 601L818 601L736 601L655 601L573 601L491 601L409 601L327 601L245 601L164 601L82 601L0 601Z" fill="#0b829c"></path><path d="M0 551L82 547L164 538L245 542L327 520L409 561L491 553L573 520L655 521L736 552L818 583L900 561L900 601L818 601L736 601L655 601L573 601L491 601L409 601L327 601L245 601L164 601L82 601L0 601Z" fill="#0c7b93"></path></svg>